<?xml version="1.0" encoding="utf-8"?>
<!-- Generator: Adobe Illustrator 27.9.0, SVG Export Plug-In . SVG Version: 6.00 Build 0)  -->
<svg version="1.1" xmlns="http://www.w3.org/2000/svg" xmlns:xlink="http://www.w3.org/1999/xlink" x="0px" y="0px"
	 viewBox="0 0 1920 1080" style="enable-background:new 0 0 1920 1080;" xml:space="preserve">
<style type="text/css">
	.st0{fill:#0C0C0C;}
	.st1{fill:none;stroke:#1C1C1C;stroke-width:297;stroke-miterlimit:10;}
	.st2{display:none;fill:none;stroke:#2B2B2B;stroke-width:297;stroke-miterlimit:10;}
	.st3{fill:#191919;}
	.st4{fill:#FFFFFF;}
	.st5{fill:#C40606;}
	.st6{fill:#D30B0B;}
	.st7{fill:#894D12;}
	.st8{fill:#663B0C;}
</style>
<g id="Layer_1">
	<g>
		<path class="st0" d="M885.5,375c41.8,0,81.1,16.28,110.66,45.84C1025.72,450.4,1042,489.7,1042,531.5s-16.28,81.1-45.84,110.66
			C966.6,671.72,927.3,688,885.5,688s-81.1-16.28-110.66-45.84C745.28,612.6,729,573.3,729,531.5s16.28-81.1,45.84-110.66
			C804.4,391.28,843.7,375,885.5,375 M885.5,75C633.38,75,429,279.38,429,531.5S633.38,988,885.5,988S1342,783.62,1342,531.5
			S1137.62,75,885.5,75L885.5,75z"/>
	</g>
</g>
<g id="Layer_3">
</g>
<g id="Layer_2">
</g>
<g id="Layer_4">
</g>
</svg>
