<?xml version="1.0" encoding="utf-8"?>
<!-- Generator: Adobe Illustrator 27.9.0, SVG Export Plug-In . SVG Version: 6.00 Build 0)  -->
<svg version="1.1" xmlns="http://www.w3.org/2000/svg" xmlns:xlink="http://www.w3.org/1999/xlink" x="0px" y="0px"
	 viewBox="0 0 1920 1080" style="enable-background:new 0 0 1920 1080;" xml:space="preserve">
<style type="text/css">
	.st0{fill:#0C0C0C;}
	.st1{fill:none;stroke:#1C1C1C;stroke-width:297;stroke-miterlimit:10;}
	.st2{display:none;fill:none;stroke:#2B2B2B;stroke-width:297;stroke-miterlimit:10;}
	.st3{fill:#191919;}
	.st4{fill:#FFFFFF;}
	.st5{fill:#C40606;}
	.st6{fill:#D30B0B;}
	.st7{fill:#894D12;}
	.st8{fill:#663B0C;}
</style>
<g id="Layer_1">
</g>
<g id="Layer_3">
</g>
<g id="Layer_2">
	<g>
		<circle class="st4" cx="1065" cy="596" r="112.25"/>
		<path class="st5" d="M1065,533.75c34.32,0,62.25,27.93,62.25,62.25s-27.93,62.25-62.25,62.25s-62.25-27.93-62.25-62.25
			S1030.68,533.75,1065,533.75 M1065,433.75c-89.61,0-162.25,72.64-162.25,162.25S975.39,758.25,1065,758.25
			s162.25-72.64,162.25-162.25S1154.61,433.75,1065,433.75L1065,433.75z"/>
	</g>
	<g>
		<path class="st6" d="M1071.06,756.89c-9.24,0.42-18.53,0.08-27.84-1l13.63-98.65c14.82,1.73,29.5-2.07,41.33-10.7
			c11.84-8.63,19.42-21.05,21.34-34.98l104.93,12.25c-2.81,20.34-9.79,39.59-20.74,57.24c-10.56,17.02-24.35,31.79-40.97,43.91
			c-16.63,12.12-35.27,20.98-55.43,26.35C1095.4,754.47,1083.28,756.34,1071.06,756.89z"/>
	</g>
	<g>
		<path class="st6" d="M1032.75,542.48l-51.94-83.54c19.42-12.08,41.68-19.66,64.35-21.94l9.83,97.88
			C1047.19,535.66,1039.49,538.29,1032.75,542.48z"/>
	</g>
	<g>
		<path class="st6" d="M1005.05,583.42l-99.96-17.31c3.57-20.6,11.08-39.92,22.33-57.41c10.85-16.87,24.69-31.3,41.13-42.89
			l58.44,82.92C1015.29,556.99,1007.5,569.31,1005.05,583.42z"/>
	</g>
	<circle class="st4" cx="1065" cy="595" r="65"/>
</g>
<g id="Layer_4">
</g>
</svg>
