<?xml version="1.0" encoding="utf-8"?>
<!-- Generator: Adobe Illustrator 27.9.0, SVG Export Plug-In . SVG Version: 6.00 Build 0)  -->
<svg version="1.1" xmlns="http://www.w3.org/2000/svg" xmlns:xlink="http://www.w3.org/1999/xlink" x="0px" y="0px"
	 viewBox="0 0 1920 1080" style="enable-background:new 0 0 1920 1080;" xml:space="preserve">
<style type="text/css">
	.st0{fill:#0C0C0C;}
	.st1{fill:none;stroke:#1C1C1C;stroke-width:297;stroke-miterlimit:10;}
	.st2{display:none;fill:none;stroke:#2B2B2B;stroke-width:297;stroke-miterlimit:10;}
	.st3{fill:#191919;}
	.st4{fill:#FFFFFF;}
	.st5{fill:#C40606;}
	.st6{fill:#D30B0B;}
	.st7{fill:#894D12;}
	.st8{fill:#663B0C;}
</style>
<g id="Layer_1">
</g>
<g id="Layer_3">
	<path class="st1" d="M1197.81,592.38c-28.79,166.25-186.9,277.68-353.15,248.89"/>
	<path class="st1" d="M734.42,278.41c39.17-24.35,83.83-39.89,130.73-44.6"/>
	<path class="st1" d="M595.69,488.62c14.39-83.12,61.12-152.54,125.03-197.59"/>
	<g>
		<path class="st3" d="M896.5,145.5c53.33,0,105.06,10.44,153.75,31.04c47.04,19.89,89.28,48.38,125.56,84.65
			c36.28,36.28,64.76,78.52,84.65,125.56c20.6,48.69,31.04,100.42,31.04,153.75s-10.44,105.06-31.04,153.75
			c-19.89,47.04-48.38,89.28-84.65,125.56c-36.28,36.28-78.52,64.76-125.56,84.65c-48.69,20.6-100.42,31.04-153.75,31.04
			s-105.06-10.44-153.75-31.04c-47.04-19.89-89.28-48.38-125.56-84.65c-36.28-36.28-64.76-78.52-84.65-125.56
			c-20.6-48.69-31.04-100.42-31.04-153.75s10.44-105.06,31.04-153.75c19.89-47.04,48.38-89.28,84.65-125.56
			c36.28-36.28,78.52-64.76,125.56-84.65C791.44,155.94,843.17,145.5,896.5,145.5 M896.5,140.5c-220.91,0-400,179.09-400,400
			s179.09,400,400,400s400-179.09,400-400S1117.41,140.5,896.5,140.5L896.5,140.5z"/>
	</g>
	<g>
		<path class="st3" d="M896.5,163c50.96,0,100.4,9.98,146.94,29.66c44.95,19.01,85.32,46.23,119.99,80.9
			c34.67,34.67,61.89,75.04,80.9,119.99c19.68,46.54,29.66,95.97,29.66,146.94s-9.98,100.4-29.66,146.94
			c-19.01,44.95-46.23,85.32-80.9,119.99c-34.67,34.67-75.04,61.89-119.99,80.9C996.9,908.02,947.46,918,896.5,918
			s-100.4-9.98-146.94-29.66c-44.95-19.01-85.32-46.23-119.99-80.9c-34.67-34.67-61.89-75.04-80.9-119.99
			C528.98,640.9,519,591.46,519,540.5s9.98-100.4,29.66-146.94c19.01-44.95,46.23-85.32,80.9-119.99
			c34.67-34.67,75.04-61.89,119.99-80.9C796.1,172.98,845.54,163,896.5,163 M896.5,158C685.25,158,514,329.25,514,540.5
			S685.25,923,896.5,923S1279,751.75,1279,540.5S1107.75,158,896.5,158L896.5,158z"/>
	</g>
	<g>
		<path class="st3" d="M896,180c48.6,0,95.75,9.52,140.13,28.29c42.87,18.13,81.37,44.09,114.43,77.15
			c33.06,33.06,59.02,71.56,77.15,114.43C1246.48,444.25,1256,491.4,1256,540s-9.52,95.75-28.29,140.13
			c-18.13,42.87-44.09,81.37-77.15,114.43c-33.06,33.06-71.56,59.02-114.43,77.15C991.75,890.48,944.6,900,896,900
			s-95.75-9.52-140.13-28.29c-42.87-18.13-81.37-44.09-114.43-77.15s-59.02-71.56-77.15-114.43C545.52,635.75,536,588.6,536,540
			s9.52-95.75,28.29-140.13c18.13-42.87,44.09-81.37,77.15-114.43s71.56-59.02,114.43-77.15C800.25,189.52,847.4,180,896,180
			 M896,175c-201.58,0-365,163.42-365,365s163.42,365,365,365s365-163.42,365-365S1097.58,175,896,175L896,175z"/>
	</g>
	<g>
		<path class="st3" d="M897,198.5c46.24,0,91.09,9.05,133.31,26.91c40.78,17.25,77.41,41.95,108.87,73.4
			c31.46,31.46,56.15,68.09,73.4,108.87c17.86,42.22,26.91,87.08,26.91,133.31s-9.05,91.09-26.91,133.31
			c-17.25,40.78-41.95,77.41-73.4,108.87c-31.46,31.46-68.09,56.15-108.87,73.4C988.09,874.45,943.24,883.5,897,883.5
			s-91.09-9.05-133.31-26.91c-40.78-17.25-77.41-41.95-108.87-73.4c-31.46-31.46-56.15-68.09-73.4-108.87
			C563.55,632.09,554.5,587.24,554.5,541s9.05-91.09,26.91-133.31c17.25-40.78,41.95-77.41,73.4-108.87
			c31.46-31.46,68.09-56.15,108.87-73.4C805.91,207.55,850.76,198.5,897,198.5 M897,193.5c-191.92,0-347.5,155.58-347.5,347.5
			S705.08,888.5,897,888.5s347.5-155.58,347.5-347.5S1088.92,193.5,897,193.5L897,193.5z"/>
	</g>
	<g>
		<path class="st3" d="M896.61,215.56c43.88,0,86.44,8.59,126.5,25.54c38.7,16.37,73.46,39.8,103.31,69.65
			c29.85,29.85,53.28,64.61,69.65,103.31c16.95,40.06,25.54,82.63,25.54,126.5s-8.59,86.44-25.54,126.5
			c-16.37,38.7-39.8,73.46-69.65,103.31c-29.85,29.85-64.61,53.28-103.31,69.65c-40.06,16.95-82.63,25.54-126.5,25.54
			s-86.44-8.59-126.5-25.54c-38.7-16.37-73.46-39.8-103.31-69.65c-29.85-29.85-53.28-64.61-69.65-103.31
			c-16.95-40.06-25.54-82.63-25.54-126.5s8.59-86.44,25.54-126.5c16.37-38.7,39.8-73.46,69.65-103.31
			c29.85-29.85,64.61-53.28,103.31-69.65C810.17,224.15,852.73,215.56,896.61,215.56 M896.61,210.56c-182.25,0-330,147.75-330,330
			s147.75,330,330,330s330-147.75,330-330S1078.86,210.56,896.61,210.56L896.61,210.56z"/>
	</g>
	<g>
		<path class="st3" d="M896,232.5c41.51,0,81.78,8.13,119.69,24.16c36.62,15.49,69.5,37.66,97.74,65.9
			c28.24,28.24,50.41,61.13,65.9,97.74c16.03,37.91,24.16,78.18,24.16,119.69s-8.13,81.78-24.16,119.69
			c-15.49,36.62-37.66,69.5-65.9,97.74c-28.24,28.24-61.13,50.41-97.74,65.9C977.78,839.37,937.51,847.5,896,847.5
			s-81.78-8.13-119.69-24.16c-36.62-15.49-69.5-37.66-97.74-65.9c-28.24-28.24-50.41-61.13-65.9-97.74
			C596.63,621.78,588.5,581.51,588.5,540s8.13-81.78,24.16-119.69c15.49-36.62,37.66-69.5,65.9-97.74
			c28.24-28.24,61.13-50.41,97.74-65.9C814.22,240.63,854.49,232.5,896,232.5 M896,227.5c-172.59,0-312.5,139.91-312.5,312.5
			S723.41,852.5,896,852.5s312.5-139.91,312.5-312.5S1068.59,227.5,896,227.5L896,227.5z"/>
	</g>
	<g>
		<path class="st3" d="M897.5,251.5c39.15,0,77.13,7.67,112.88,22.79c34.53,14.61,65.55,35.52,92.18,62.15
			c26.63,26.63,47.55,57.65,62.15,92.18c15.12,35.75,22.79,73.73,22.79,112.88s-7.67,77.13-22.79,112.88
			c-14.61,34.53-35.52,65.55-62.15,92.18c-26.63,26.63-57.65,47.55-92.18,62.15c-35.75,15.12-73.73,22.79-112.88,22.79
			s-77.13-7.67-112.88-22.79c-34.53-14.61-65.55-35.52-92.18-62.15c-26.63-26.63-47.55-57.65-62.15-92.18
			c-15.12-35.75-22.79-73.73-22.79-112.88s7.67-77.13,22.79-112.88c14.61-34.53,35.52-65.55,62.15-92.18
			c26.63-26.63,57.65-47.55,92.18-62.15C820.37,259.17,858.35,251.5,897.5,251.5 M897.5,246.5c-162.92,0-295,132.08-295,295
			s132.08,295,295,295s295-132.08,295-295S1060.42,246.5,897.5,246.5L897.5,246.5z"/>
	</g>
	<g>
		<path class="st3" d="M896,270c36.45,0,71.81,7.14,105.09,21.22c32.15,13.6,61.03,33.07,85.82,57.87
			c24.8,24.8,44.27,53.67,57.87,85.82C1158.86,468.19,1166,503.55,1166,540s-7.14,71.81-21.22,105.09
			c-13.6,32.15-33.07,61.03-57.87,85.82c-24.8,24.8-53.67,44.27-85.82,57.87C967.81,802.86,932.45,810,896,810
			s-71.81-7.14-105.09-21.22c-32.15-13.6-61.03-33.07-85.82-57.87c-24.8-24.8-44.27-53.67-57.87-85.82
			C633.14,611.81,626,576.45,626,540s7.14-71.81,21.22-105.09c13.6-32.15,33.07-61.03,57.87-85.82s53.67-44.27,85.82-57.87
			C824.19,277.14,859.55,270,896,270 M896,265c-151.88,0-275,123.12-275,275s123.12,275,275,275s275-123.12,275-275
			S1047.88,265,896,265L896,265z"/>
	</g>
	<g>
		<path class="st3" d="M896,290c33.75,0,66.49,6.61,97.31,19.64c29.77,12.59,56.51,30.62,79.47,53.58
			c22.96,22.96,40.99,49.7,53.58,79.47c13.03,30.82,19.64,63.56,19.64,97.31s-6.61,66.49-19.64,97.31
			c-12.59,29.77-30.62,56.51-53.58,79.47c-22.96,22.96-49.7,40.99-79.47,53.58C962.49,783.39,929.75,790,896,790
			s-66.49-6.61-97.31-19.64c-29.77-12.59-56.51-30.62-79.47-53.58c-22.96-22.96-40.99-49.7-53.58-79.47
			C652.61,606.49,646,573.75,646,540s6.61-66.49,19.64-97.31c12.59-29.77,30.62-56.51,53.58-79.47
			c22.96-22.96,49.7-40.99,79.47-53.58C829.51,296.61,862.25,290,896,290 M896,285c-140.83,0-255,114.17-255,255s114.17,255,255,255
			s255-114.17,255-255S1036.83,285,896,285L896,285z"/>
	</g>
	<g>
		<path class="st3" d="M897,312c31.05,0,61.17,6.08,89.52,18.07c27.39,11.58,51.99,28.17,73.11,49.29
			c21.12,21.12,37.71,45.72,49.29,73.11c11.99,28.35,18.07,58.47,18.07,89.52s-6.08,61.17-18.07,89.52
			c-11.58,27.39-28.17,51.99-49.29,73.11c-21.12,21.12-45.72,37.71-73.11,49.29C958.17,765.92,928.05,772,897,772
			s-61.17-6.08-89.52-18.07c-27.39-11.58-51.99-28.17-73.11-49.29s-37.71-45.72-49.29-73.11C673.08,603.17,667,573.05,667,542
			s6.08-61.17,18.07-89.52c11.58-27.39,28.17-51.99,49.29-73.11c21.12-21.12,45.72-37.71,73.11-49.29
			C835.83,318.08,865.95,312,897,312 M897,307c-129.79,0-235,105.21-235,235s105.21,235,235,235s235-105.21,235-235
			S1026.79,307,897,307L897,307z"/>
	</g>
	<g>
		<path class="st3" d="M896,332c28.35,0,55.85,5.55,81.74,16.5c25.01,10.58,47.46,25.72,66.75,45.01
			c19.29,19.29,34.43,41.75,45.01,66.75c10.95,25.89,16.5,53.39,16.5,81.74s-5.55,55.85-16.5,81.74
			c-10.58,25.01-25.72,47.46-45.01,66.75c-19.29,19.29-41.75,34.43-66.75,45.01C951.85,746.45,924.35,752,896,752
			s-55.85-5.55-81.74-16.5c-25.01-10.58-47.46-25.72-66.75-45.01c-19.29-19.29-34.43-41.75-45.01-66.75
			C691.55,597.85,686,570.35,686,542s5.55-55.85,16.5-81.74c10.58-25.01,25.72-47.46,45.01-66.75
			c19.29-19.29,41.75-34.43,66.75-45.01C840.15,337.55,867.65,332,896,332 M896,327c-118.74,0-215,96.26-215,215s96.26,215,215,215
			s215-96.26,215-215S1014.74,327,896,327L896,327z"/>
	</g>
</g>
<g id="Layer_2">
</g>
<g id="Layer_4">
</g>
</svg>
